# xmcd
#
# Track frame offsets: 
#        150
#        11589
#        25167
#        39594
#        54481
#
# Disc length: 887 seconds
#
# Revision: 0
# Processed by: cddbd v1.5.2PL0 Copyright (c) Steve Scherf et al.
# Submitted via: ExactAudioCopyFreeDBPlugin 1.0
#
DISCID=34037505
DTITLE=John Vida - Samstag der Vierzehnte
DYEAR=2012
DGENRE=Pop
TTITLE0=Toastbrot
TTITLE1=Kein Thema
TTITLE2=Rausschmeisser
TTITLE3=Nirgendwo
TTITLE4=Ändere Dich Nie
EXTD=
EXTT0=
EXTT1=
EXTT2=
EXTT3=
EXTT4=
PLAYORDER=
